<svg xmlns="http://www.w3.org/2000/svg" version="1.1" xmlns:xlink="http://www.w3.org/1999/xlink" width="512" height="512"><svg xmlns="http://www.w3.org/2000/svg" version="1.1" xmlns:xlink="http://www.w3.org/1999/xlink" width="512" height="512"><svg width="512" height="512" viewBox="0 0 512 512" fill="none" xmlns="http://www.w3.org/2000/svg">
<path d="M92.7188 116.886L156.312 113.452L213.031 381.288L158.031 391.589L151.156 340.082L97.875 346.95L89.2813 403.607L36 413.909L92.7188 116.886ZM123.656 166.676L104.75 295.443L142.563 290.292L123.656 166.676Z" fill="#02529F"></path>
<path d="M235.375 161.525L188.969 163.242V111.735L335.063 104.868V152.941L288.656 156.374V367.552L237.094 376.137V161.525H235.375Z" fill="#02529F"></path>
<path d="M345.375 104.868L472.563 98V142.639L396.937 147.79V197.58L467.406 190.712V235.352L396.937 243.936V300.594L476 288.575V333.215L345.375 357.251V104.868Z" fill="#02529F"></path>
</svg></svg><style>@media (prefers-color-scheme: light) { :root { filter: none; } }
@media (prefers-color-scheme: dark) { :root { filter: contrast(0.3846153846153846) brightness(4.5); } }
</style></svg>