<svg xmlns="http://www.w3.org/2000/svg" version="1.1" xmlns:xlink="http://www.w3.org/1999/xlink" width="512" height="512"><svg width="512" height="512" viewBox="0 0 512 512" fill="none" xmlns="http://www.w3.org/2000/svg">
<path d="M119.126 476.238C24.847 379.508 20.9609 222.123 111.946 121.001C161.113 66.3422 231.569 35 305.32 35C363.695 35 420.381 54.6839 466 90.5878L451.301 106.892C409.737 74.5366 358.204 56.8802 305.32 56.8802C237.82 56.8802 173.278 85.6034 128.25 135.615C44.0239 229.303 46.9808 370.131 133.826 459.933L119.126 476.238Z" fill="#39647A"></path>
<path d="M119.126 476.238C24.847 379.508 20.9609 222.123 111.946 121.001C161.113 66.3422 231.569 35 305.32 35C363.695 35 420.381 54.6839 466 90.5878L451.301 106.892C409.737 74.5366 358.204 56.8802 305.32 56.8802C237.82 56.8802 173.278 85.6034 128.25 135.615C44.0239 229.303 46.9808 370.131 133.826 459.933L119.126 476.238Z" fill="#142532"></path>
</svg><style>@media (prefers-color-scheme: light) { :root { filter: none; } }
@media (prefers-color-scheme: dark) { :root { filter: invert(100%); } }
</style></svg>