<svg width="62" height="59" viewBox="0 0 62 59" fill="none" xmlns="http://www.w3.org/2000/svg">
<path d="M19.0833 41.0417L13.9167 43.625L8.75 41.0417V20.375L13.9167 17.7917L19.0833 20.375V41.0417Z" stroke="#02529F" stroke-width="2" stroke-miterlimit="10" stroke-linecap="round" stroke-linejoin="round"/>
<path d="M52.6663 41.0417L47.4997 43.625L42.333 41.0417V20.375L47.4997 17.7917L52.6663 20.375V41.0417Z" stroke="#02529F" stroke-width="2" stroke-miterlimit="10" stroke-linecap="round" stroke-linejoin="round"/>
<path d="M8.75 37.1667H3.58333L1 30.7083L3.58333 24.25H8.75V37.1667Z" stroke="#02529F" stroke-width="2" stroke-miterlimit="10" stroke-linecap="round" stroke-linejoin="round"/>
<path d="M52.666 37.1667H57.8327L60.416 30.7083L57.8327 24.25H52.666V37.1667Z" stroke="#02529F" stroke-width="2" stroke-miterlimit="10" stroke-linecap="round" stroke-linejoin="round"/>
<path d="M47.4993 17.7917V8.75L30.7077 1L13.916 8.75V17.7917" stroke="#02529F" stroke-width="2" stroke-miterlimit="10" stroke-linecap="round" stroke-linejoin="round"/>
<path d="M47.4993 43.625V48.7917L42.3327 55.25H37.166" stroke="#02529F" stroke-width="2" stroke-miterlimit="10" stroke-linecap="round" stroke-linejoin="round"/>
<path d="M37.1663 52.6667H26.833V57.8334H37.1663V52.6667Z" stroke="#02529F" stroke-width="2" stroke-miterlimit="10" stroke-linecap="round" stroke-linejoin="round"/>
</svg>
