<svg width="59" height="57" viewBox="0 0 59 57" fill="none" xmlns="http://www.w3.org/2000/svg">
<path d="M44.917 2.61462V19.0834L48.792 13.9167L52.667 17.7917V1.64587" stroke="#02529F" stroke-width="2" stroke-miterlimit="10" stroke-linecap="round" stroke-linejoin="round"/>
<path d="M57.8333 47.5L37.1667 50.0833L29.4167 55.25L21.6667 50.0833L1 47.5V1L21.6667 3.58333L29.4167 10.0417L37.1667 3.58333L57.8333 1V47.5Z" stroke="#02529F" stroke-width="2" stroke-miterlimit="10" stroke-linecap="round" stroke-linejoin="round"/>
<path d="M29.417 10.0417V55.25" stroke="#02529F" stroke-width="2" stroke-miterlimit="10" stroke-linecap="round" stroke-linejoin="round"/>
<path d="M22.9587 15.2084L6.16699 13.2141" stroke="#02529F" stroke-width="2" stroke-miterlimit="10" stroke-linecap="round" stroke-linejoin="round"/>
<path d="M22.9587 20.9666L6.16699 18.9722" stroke="#02529F" stroke-width="2" stroke-miterlimit="10" stroke-linecap="round" stroke-linejoin="round"/>
<path d="M22.9587 26.7223L6.16699 24.7305" stroke="#02529F" stroke-width="2" stroke-miterlimit="10" stroke-linecap="round" stroke-linejoin="round"/>
<path d="M14.5628 31.4834L6.16699 30.4862" stroke="#02529F" stroke-width="2" stroke-miterlimit="10" stroke-linecap="round" stroke-linejoin="round"/>
<path d="M35.875 26.7223L52.6667 24.7305" stroke="#02529F" stroke-width="2" stroke-miterlimit="10" stroke-linecap="round" stroke-linejoin="round"/>
<path d="M35.875 33.2917L44.2708 32.2945" stroke="#02529F" stroke-width="2" stroke-miterlimit="10" stroke-linecap="round" stroke-linejoin="round"/>
<path d="M35.875 15.2084L39.75 14.7486" stroke="#02529F" stroke-width="2" stroke-miterlimit="10" stroke-linecap="round" stroke-linejoin="round"/>
<path d="M35.875 20.9821L39.75 20.5223" stroke="#02529F" stroke-width="2" stroke-miterlimit="10" stroke-linecap="round" stroke-linejoin="round"/>
</svg>
