<svg width="44" height="55" viewBox="0 0 44 55" fill="none" xmlns="http://www.w3.org/2000/svg">
<path d="M26.833 38.4583V53.9583H37.1663V38.4583H42.333V25.5417L31.9997 21.6667L26.833 23.6042" stroke="#02529F" stroke-width="2" stroke-miterlimit="10" stroke-linecap="round" stroke-linejoin="round"/>
<path d="M32 28.125V35.875" stroke="#02529F" stroke-width="2" stroke-miterlimit="10" stroke-linecap="round" stroke-linejoin="round"/>
<path d="M39.75 15.2083L32 19.0833L24.25 15.2083V4.875L32 1L39.75 4.875V15.2083Z" stroke="#02529F" stroke-width="2" stroke-miterlimit="10" stroke-linecap="round" stroke-linejoin="round"/>
<path d="M39.75 7.45833H29.4167L24.25 4.875" stroke="#02529F" stroke-width="2" stroke-miterlimit="10" stroke-linecap="round" stroke-linejoin="round"/>
<path d="M16.5 53.9583V38.4583H21.6667V25.5417L11.3333 21.6667L1 25.5417V38.4583H6.16667V53.9583H16.5Z" stroke="#02529F" stroke-width="2" stroke-miterlimit="10" stroke-linecap="round" stroke-linejoin="round"/>
<path d="M11.333 28.125V35.875" stroke="#02529F" stroke-width="2" stroke-miterlimit="10" stroke-linecap="round" stroke-linejoin="round"/>
<path d="M19.083 15.2083L11.333 19.0833L3.58301 15.2083V4.875L11.333 1L19.083 4.875V15.2083Z" stroke="#02529F" stroke-width="2" stroke-miterlimit="10" stroke-linecap="round" stroke-linejoin="round"/>
<path d="M19.083 7.45833H8.74967L3.58301 4.875" stroke="#02529F" stroke-width="2" stroke-miterlimit="10" stroke-linecap="round" stroke-linejoin="round"/>
</svg>
