<svg width="200" height="81" viewBox="0 0 200 81" fill="none" xmlns="http://www.w3.org/2000/svg">
<rect width="200" height="81" fill="white"/>
<path d="M38.6505 35.9382C39.5656 35.9382 40.3 36.6672 40.3 37.5774C40.3 38.4864 39.5656 39.2154 38.6505 39.2154C37.7354 39.2154 37.001 38.4864 37.001 37.5774C37.001 36.6672 37.7354 35.9382 38.6505 35.9382Z" fill="#919195"/>
<path d="M53.0446 38.0963V44.0883C53.0446 44.7222 53.1891 44.9528 53.9435 44.9528V45.3565H48.1719V44.9528C48.8099 44.9528 48.9257 44.7222 48.9257 44.0883V25.6489C48.9257 25.0151 48.8099 24.7845 48.1719 24.7845V24.3807H53.9435V24.7845C53.1897 24.7845 53.0446 25.0146 53.0446 25.6489V33.601L62.7609 25.85C63.3411 25.3602 63.5732 25.2452 63.5732 25.0726C63.5732 24.8995 63.3995 24.7845 63.196 24.7845V24.3807H70.2438V24.7845C69.7216 24.8415 68.8513 25.3323 68.039 25.9941L59.9187 32.507L69.5478 44.0889C69.9543 44.5786 70.273 44.8958 70.9111 44.9533V45.357H64.1815V44.9533C64.5587 44.9243 64.6745 44.8673 64.6745 44.6937C64.6745 44.5211 64.4429 44.262 64.2107 43.9733L56.7566 35.0417L53.0446 38.0963Z" fill="#EF4035"/>
<path d="M77.2843 35.9382C78.1994 35.9382 78.9338 36.6672 78.9338 37.5774C78.9338 38.4864 78.1994 39.2154 77.2843 39.2154C76.3691 39.2154 75.6348 38.4864 75.6348 37.5774C75.6348 36.6672 76.3691 35.9382 77.2843 35.9382Z" fill="#919195"/>
<path d="M110.226 24.381V24.7847C109.559 24.7847 109.444 25.0148 109.444 25.6492V44.0886C109.444 44.7224 109.559 44.953 110.226 44.953V45.3568H104.629V44.953C105.21 44.953 105.325 44.7224 105.325 44.0886V31.1525H105.267L97.7846 45.3562H97.3782L89.9814 31.0084H89.9235V44.0886C89.9235 44.7224 90.0393 44.953 90.7937 44.953V45.3568H85.6309V44.953C86.2684 44.953 86.3847 44.7224 86.3847 44.0886V25.6492C86.3847 25.0153 86.2684 24.7847 85.6309 24.7847V24.381H92.0692V24.7847C91.6926 24.7847 91.3154 24.9858 91.3154 25.3325C91.3154 25.5911 91.5178 25.8502 91.9529 26.6867L97.8117 37.8079L104.251 25.9378C104.396 25.7067 104.569 25.39 104.569 25.1884C104.569 24.9293 104.309 24.8137 103.815 24.7847V24.381H110.226Z" fill="#EF4035"/>
<path d="M120.336 35.9382C121.252 35.9382 121.985 36.6672 121.985 37.5774C121.985 38.4864 121.252 39.2154 120.336 39.2154C119.421 39.2154 118.688 38.4864 118.688 37.5774C118.688 36.6672 119.421 35.9382 120.336 35.9382Z" fill="#919195"/>
<path d="M134.321 37.5773C134.321 40.9765 135.655 42.2446 140.876 42.2446C146.096 42.2446 147.431 40.9765 147.431 37.5773V25.6492C147.431 25.0153 147.286 24.7847 146.59 24.7847V24.381H152.361V24.7847C151.665 24.7847 151.549 25.0148 151.549 25.6492V38.2686C151.549 43.801 147.547 45.6449 140.875 45.6449C134.205 45.6449 130.202 43.801 130.202 38.2686V25.6492C130.202 25.0153 130.086 24.7847 129.39 24.7847V24.381H135.162V24.7847C134.465 24.7847 134.321 25.0148 134.321 25.6492V37.5773H134.321Z" fill="#EF4035"/>
<path d="M161.339 35.9382C162.254 35.9382 162.987 36.6672 162.987 37.5774C162.987 38.4864 162.254 39.2154 161.339 39.2154C160.423 39.2154 159.688 38.4864 159.688 37.5774C159.688 36.6672 160.423 35.9382 161.339 35.9382Z" fill="#919195"/>
<path d="M37.6965 58.2453V59.0979C37.6965 59.1855 37.7154 59.2146 37.7755 59.2146V59.2828H37.0352V59.2146C37.1142 59.2146 37.1282 59.1855 37.1282 59.0979V56.4965C37.1282 56.4089 37.1142 56.3798 37.0352 56.3798V56.3116H37.776V56.3798C37.7154 56.3798 37.697 56.4089 37.697 56.4965V57.6314L39.0294 56.5008C39.0619 56.4766 39.1084 56.4325 39.1084 56.4083C39.1084 56.3836 39.09 56.3793 39.0619 56.3793V56.311H40.0078V56.3793C39.8725 56.4083 39.7795 56.4718 39.6956 56.5401L38.6008 57.4706L39.8823 59.1076C39.9472 59.1952 39.9938 59.2146 40.0733 59.2146V59.2828H39.1782V59.2146C39.2107 59.2194 39.2199 59.2001 39.2199 59.1807C39.2199 59.1662 39.1917 59.1323 39.1685 59.1028L38.1765 57.8211L37.6965 58.2453Z" fill="#919195"/>
<path d="M44.2608 56.3112V56.3795C44.1818 56.3795 44.1678 56.4085 44.1678 56.4961V59.0975C44.1678 59.1852 44.1818 59.2142 44.2608 59.2142V59.2825H43.5855V59.2142C43.6553 59.2142 43.6737 59.1852 43.6737 59.0975V57.2364H43.6645L42.6346 59.2825H42.5415L41.4608 57.2364L41.4841 57.2267V57.2364H41.4743V59.0975C41.4743 59.1852 41.4884 59.2142 41.5955 59.2142V59.2825H40.8828V59.2142C40.9667 59.2142 40.9808 59.1852 40.9808 59.0975V56.4961C40.9808 56.4085 40.9667 56.3795 40.8828 56.3795V56.3112H41.6886V56.3795C41.6562 56.3795 41.6329 56.3988 41.6329 56.4478C41.6329 56.5015 41.6843 56.5741 41.7168 56.6375L42.5832 58.2406L43.3987 56.6375C43.4453 56.5499 43.4826 56.4671 43.4826 56.4327C43.4826 56.3988 43.4404 56.3838 43.3987 56.3789V56.3107L44.2608 56.3112Z" fill="#919195"/>
<path d="M46.0284 56.311V56.3793C45.9629 56.3793 45.9445 56.4132 45.9445 56.496V58.2792C45.9445 58.713 46.2335 58.8538 46.8201 58.8538C47.4073 58.8538 47.6963 58.713 47.6963 58.2792V56.496C47.6963 56.4132 47.6779 56.3793 47.6032 56.3793V56.311H48.3625V56.3793C48.2835 56.3793 48.2645 56.4132 48.2645 56.496V58.2593C48.2645 59.0877 47.6963 59.3307 46.8201 59.3307C45.9445 59.3307 45.3757 59.0872 45.3757 58.2593V56.496C45.3757 56.4132 45.3616 56.3793 45.2686 56.3793V56.311H46.0284Z" fill="#919195"/>
<path d="M49.1963 57.5582H50.3376V58.0356H49.1963V57.5582Z" fill="#919195"/>
<path d="M54.0368 56.311V56.3793C53.9762 56.3793 53.9204 56.4427 53.8874 56.5255L52.8343 59.0592C52.8159 59.1076 52.8018 59.1323 52.8018 59.1662C52.8018 59.1952 52.8251 59.2103 52.876 59.2146V59.2828H52.1124V59.2146C52.1638 59.2146 52.173 59.1904 52.173 59.1662C52.173 59.1517 52.1497 59.0931 52.1313 59.0538L51.0273 56.5255C50.9992 56.4669 50.9808 56.3793 50.8779 56.3793V56.311H51.6794V56.3793C51.6377 56.3793 51.6047 56.3938 51.6047 56.4277C51.6047 56.4616 51.7076 56.6664 51.8937 57.0948L52.5182 58.5512L53.1238 57.0948C53.2494 56.7927 53.3939 56.4664 53.3939 56.4277C53.3939 56.3938 53.3565 56.3793 53.3192 56.3793V56.311H54.0368Z" fill="#919195"/>
<path d="M57.4376 59.3415C57.4376 59.298 57.3959 59.2829 57.3023 59.2829H54.7441V59.2146C54.814 59.2146 54.828 59.1856 54.828 59.098V56.4966C54.828 56.409 54.814 56.3799 54.7441 56.3799V56.3116H57.2693C57.3672 56.3116 57.4046 56.2875 57.4046 56.2531H57.4695V56.8767H57.4046C57.4046 56.8277 57.3672 56.789 57.2693 56.789H55.3968V57.539H56.6128C56.7059 57.539 56.7433 57.5148 56.7433 57.4707H56.8087V58.0846H56.7433C56.7433 58.0556 56.7059 58.0164 56.6128 58.0164H55.3968V58.8055H57.3023C57.3954 58.8055 57.4376 58.7808 57.4376 58.7373H57.5025V59.3415H57.4376Z" fill="#919195"/>
<path d="M59.0265 58.0453V59.0974C59.0265 59.185 59.0401 59.214 59.1104 59.214V59.2823H58.3604V59.214C58.4442 59.214 58.4583 59.185 58.4583 59.0974V56.496C58.4583 56.4083 58.4442 56.3793 58.3604 56.3793V56.311H59.9449C60.7924 56.311 61.2816 56.5449 61.2816 57.2174C61.2816 57.6658 60.9602 57.9969 60.4899 58.0458L61.1983 59.1033C61.2405 59.1667 61.3011 59.2151 61.3709 59.2151V59.2834H60.5218V59.2151C60.5359 59.2151 60.5592 59.2103 60.5592 59.1861C60.5592 59.1329 60.4801 59.035 60.4287 58.9522L59.8508 58.0453H59.0265ZM59.0265 57.5679H60.196C60.6057 57.5679 60.7134 57.4314 60.7134 57.1733C60.7134 56.9153 60.4991 56.7884 60.1073 56.7884H59.0265V57.5679Z" fill="#919195"/>
<path d="M64.0989 56.311C64.7699 56.311 65.054 56.7008 65.054 57.1099C65.054 57.3878 64.8771 57.6168 64.6952 57.7093C64.9279 57.841 65.1428 57.977 65.1428 58.455C65.1428 59.0151 64.7142 59.2834 64.1827 59.2834H62.1982V59.2151C62.2865 59.2151 62.3005 59.1861 62.3005 59.0984V56.497C62.3005 56.4094 62.2865 56.3804 62.1982 56.3804V56.3121H64.0989V56.311ZM62.8688 57.49H64.0897C64.3224 57.49 64.5134 57.412 64.5134 57.1389C64.5134 56.8664 64.3224 56.7884 64.0897 56.7884H62.8688V57.49ZM62.8688 58.8055H64.0431C64.3738 58.8055 64.6022 58.6888 64.6022 58.3867C64.6022 58.0846 64.3738 57.9679 64.0431 57.9679H62.8688V58.8055Z" fill="#919195"/>
<path d="M65.749 59.2827V59.2144C65.8421 59.2096 65.8513 59.1268 65.9119 58.9859L66.965 56.535C66.9791 56.5006 66.9981 56.4668 66.9981 56.4281C66.9981 56.4087 66.9742 56.3797 66.9466 56.3797V56.3114H67.7617V56.3797C67.7335 56.3797 67.7059 56.399 67.7059 56.4281C67.7059 56.4619 67.7292 56.4915 67.7476 56.535L68.8662 59.0682C68.9079 59.1655 68.9409 59.2144 68.9826 59.2144V59.2827H68.2233V59.2144C68.2606 59.2144 68.2839 59.1999 68.2839 59.166C68.2839 59.1123 68.2606 59.0881 67.9998 58.4838H66.6577C66.4201 59.0682 66.3919 59.1123 66.3919 59.1467C66.3919 59.195 66.4201 59.2144 66.4715 59.2144V59.2827H65.749ZM67.3238 56.9345L66.8628 58.0064H67.7941L67.3238 56.9345Z" fill="#919195"/>
<path d="M70.2548 59.0974C70.2548 59.185 70.2737 59.214 70.3202 59.214V59.2823H69.6865V59.214C69.7423 59.214 69.7612 59.185 69.7612 59.0974V56.496C69.7612 56.4083 69.7423 56.3793 69.6865 56.3793V56.311H70.4783V56.3793C70.4501 56.3793 70.4317 56.389 70.4317 56.4234C70.4317 56.4621 70.4691 56.482 70.5064 56.5255L72.1835 58.3915V56.4965C72.1835 56.4089 72.1646 56.3798 72.1088 56.3798V56.3116H72.7566V56.3798C72.696 56.3798 72.6771 56.4089 72.6771 56.4965V59.0979C72.6771 59.1855 72.696 59.2146 72.7566 59.2146V59.2828H72.0531V59.2146C72.0904 59.2146 72.1137 59.1952 72.1137 59.1662C72.1137 59.1415 72.072 59.0979 72.0255 59.0447L70.2548 57.0615V59.0974Z" fill="#919195"/>
<path d="M73.8782 56.496C73.8782 56.4083 73.8598 56.3793 73.7852 56.3793V56.311H75.3324C76.32 56.311 76.7952 56.954 76.7952 57.7969C76.7952 58.6393 76.3758 59.2828 75.3324 59.2828H73.7852V59.2146C73.8598 59.2146 73.8782 59.1855 73.8782 59.0979V56.496ZM74.447 58.8055H75.2761C75.9656 58.8055 76.2264 58.5426 76.2264 57.7969C76.2264 57.1099 75.9937 56.7884 75.2761 56.7884H74.447V58.8055Z" fill="#919195"/>
<path d="M80.5781 56.311V56.3793C80.524 56.3841 80.5045 56.418 80.5045 56.4325C80.5045 56.4524 80.5143 56.4815 80.5343 56.5352L81.1767 58.4544H81.1864L81.8142 56.6126C81.8385 56.5443 81.8634 56.4809 81.8634 56.447C81.8634 56.4083 81.8385 56.3793 81.785 56.3793V56.311H82.6335V56.3793C82.5794 56.3793 82.5502 56.4035 82.5502 56.4427C82.5502 56.482 82.5794 56.5449 82.6043 56.6132L83.2467 58.455H83.2564L83.9037 56.5357C83.9183 56.4868 83.9329 56.4427 83.9329 56.4282C83.9329 56.3992 83.9037 56.3798 83.8496 56.3798V56.3116H84.5704V56.3798C84.4822 56.404 84.4627 56.4433 84.4232 56.5599L83.6044 58.9619C83.5752 59.0544 83.5405 59.1178 83.5405 59.1565C83.5405 59.2006 83.5698 59.2151 83.6336 59.2151V59.2834H82.8197V59.2151C82.8635 59.2151 82.8982 59.1958 82.8982 59.1667C82.8982 59.1226 82.8787 59.0839 82.8641 59.0452L82.1822 57.0916H82.1676L81.5057 59.021C81.4862 59.0845 81.4613 59.1232 81.4613 59.1624C81.4613 59.1915 81.4911 59.2156 81.5544 59.2156V59.2839H80.7746V59.2156C80.819 59.2156 80.8482 59.1915 80.8482 59.1716C80.8482 59.113 80.8141 59.0253 80.7892 58.9624L79.9509 56.5605C79.9065 56.4245 79.8871 56.3949 79.8037 56.3804V56.3121H80.5781V56.311Z" fill="#919195"/>
<path d="M86.1983 59.0974C86.1983 59.185 86.2178 59.214 86.3212 59.214V59.2823H85.4629V59.214C85.5857 59.214 85.6003 59.185 85.6003 59.0974V56.496C85.6003 56.4083 85.5857 56.3793 85.4629 56.3793V56.311H86.3212V56.3793C86.2184 56.3793 86.1983 56.4083 86.1983 56.496V59.0974Z" fill="#919195"/>
<path d="M88.1698 59.0974C88.1698 59.185 88.1893 59.214 88.2386 59.214V59.2823H87.5713V59.214C87.6303 59.214 87.6498 59.185 87.6498 59.0974V56.496C87.6498 56.4083 87.6303 56.3793 87.5713 56.3793V56.311H88.4052V56.3793C88.376 56.3793 88.356 56.389 88.356 56.4234C88.356 56.4621 88.395 56.482 88.4345 56.5255L90.2003 58.3915V56.4965C90.2003 56.4089 90.1808 56.3798 90.1219 56.3798V56.3116H90.8037V56.3798C90.7399 56.3798 90.7204 56.4089 90.7204 56.4965V59.0979C90.7204 59.1855 90.7399 59.2146 90.8037 59.2146V59.2828H90.0634V59.2146C90.1024 59.2146 90.1273 59.1952 90.1273 59.1662C90.1273 59.1415 90.0829 59.0979 90.0342 59.0447L88.1704 57.0615L88.1698 59.0974Z" fill="#919195"/>
<path d="M93.7017 59.2829H92.9023V59.2146C92.9857 59.2146 93.0003 59.1856 93.0003 59.098V56.789H92.0294C91.9315 56.789 91.892 56.7987 91.892 56.8476H91.8232V56.2531H91.892C91.892 56.2966 91.9309 56.3116 92.0294 56.3116H94.5697C94.6677 56.3116 94.7072 56.2971 94.7072 56.2531H94.7759V56.8476H94.7072C94.7072 56.7992 94.6677 56.789 94.5697 56.789H93.5988V59.098C93.5988 59.1856 93.6183 59.2146 93.7017 59.2146V59.2829Z" fill="#919195"/>
<path d="M98.6003 59.3415C98.6003 59.298 98.5565 59.2829 98.458 59.2829H95.7656V59.2146C95.8392 59.2146 95.8538 59.1856 95.8538 59.098V56.4966C95.8538 56.409 95.8392 56.3799 95.7656 56.3799V56.3116H98.4239C98.5267 56.3116 98.5662 56.2869 98.5662 56.2531H98.6349V56.8767H98.5662C98.5662 56.8283 98.5273 56.789 98.4239 56.789H96.4524V57.5395H97.7323C97.8302 57.5395 97.8697 57.5148 97.8697 57.4712H97.9385V58.0852H97.8697C97.8697 58.0561 97.8308 58.0174 97.7323 58.0174H96.4524V58.8066H98.4585C98.5565 58.8066 98.6009 58.7819 98.6009 58.7383H98.6696V59.3426H98.6003V59.3415Z" fill="#919195"/>
<path d="M100.465 58.0453V59.0974C100.465 59.185 100.48 59.214 100.553 59.214V59.2823H99.7637V59.214C99.8519 59.214 99.867 59.185 99.867 59.0974V56.496C99.867 56.4083 99.8524 56.3793 99.7637 56.3793V56.311H101.431C102.323 56.311 102.839 56.5449 102.839 57.2174C102.839 57.6652 102.5 57.9969 102.005 58.0458L102.75 59.1033C102.794 59.1667 102.858 59.2151 102.932 59.2151V59.2834H102.039V59.2151C102.054 59.2151 102.078 59.2103 102.078 59.1861C102.078 59.1329 101.995 59.035 101.941 58.9522L101.333 58.0464H100.465V58.0453ZM100.465 57.5679H101.696C102.127 57.5679 102.24 57.4314 102.24 57.1733C102.24 56.9153 102.014 56.7884 101.603 56.7884H100.465V57.5679Z" fill="#919195"/>
<path d="M105.639 59.2829H104.839V59.2146C104.923 59.2146 104.938 59.1856 104.938 59.098V56.789H103.966C103.868 56.789 103.829 56.7987 103.829 56.8476H103.761V56.2531H103.829C103.829 56.2966 103.868 56.3116 103.966 56.3116H106.507C106.605 56.3116 106.644 56.2971 106.644 56.2531H106.712V56.8476H106.644C106.644 56.7992 106.605 56.789 106.507 56.789H105.535V59.098C105.535 59.1856 105.555 59.2146 105.639 59.2146L105.639 59.2829Z" fill="#919195"/>
<path d="M110.273 57.4997V56.496C110.273 56.4083 110.259 56.3793 110.165 56.3793V56.311H110.984V56.3793C110.891 56.3793 110.872 56.4083 110.872 56.496V59.0974C110.872 59.185 110.891 59.214 110.984 59.214V59.2823H110.165V59.214C110.259 59.214 110.273 59.185 110.273 59.0974V58.0163H108.429V59.0974C108.429 59.185 108.449 59.214 108.542 59.214V59.2823H107.724V59.214C107.817 59.214 107.831 59.185 107.831 59.0974V56.496C107.831 56.4083 107.817 56.3793 107.724 56.3793V56.311H108.542V56.3793C108.449 56.3793 108.429 56.4083 108.429 56.496V57.4997H110.273Z" fill="#919195"/>
<path d="M113.044 56.311V56.3793C112.976 56.3793 112.956 56.4132 112.956 56.496V58.2792C112.956 58.713 113.26 58.8538 113.878 58.8538C114.496 58.8538 114.8 58.713 114.8 58.2792V56.496C114.8 56.4132 114.781 56.3793 114.702 56.3793V56.311H115.501V56.3793C115.418 56.3793 115.399 56.4132 115.399 56.496V58.2593C115.399 59.0877 114.8 59.3312 113.878 59.3312C112.956 59.3312 112.358 59.0877 112.358 58.2593V56.496C112.358 56.4132 112.343 56.3793 112.245 56.3793V56.311H113.044Z" fill="#919195"/>
<path d="M117.468 58.0453V59.0974C117.468 59.185 117.483 59.214 117.557 59.214V59.2823H116.767V59.214C116.855 59.214 116.869 59.185 116.869 59.0974V56.496C116.869 56.4083 116.855 56.3793 116.767 56.3793V56.311H118.435C119.327 56.311 119.842 56.5449 119.842 57.2174C119.842 57.6652 119.503 57.9969 119.008 58.0458L119.754 59.1033C119.798 59.1667 119.862 59.2151 119.935 59.2151V59.2834H119.043V59.2151C119.057 59.2151 119.082 59.2103 119.082 59.1861C119.082 59.1329 118.999 59.035 118.945 58.9522L118.337 58.0464H117.468V58.0453ZM117.468 57.5679H118.699C119.13 57.5679 119.244 57.4314 119.244 57.1733C119.244 56.9153 119.018 56.7884 118.606 56.7884H117.469L117.468 57.5679Z" fill="#919195"/>
<path d="M127.121 58.0361H127.052C127.052 57.9877 127.033 57.9629 126.964 57.9629C126.851 57.9629 126.503 58.2167 126.376 58.5769C126.459 58.801 126.694 58.9569 126.905 58.9569C127.019 58.9569 127.053 58.9225 127.053 58.8596H127.121V59.5709C126.66 59.5709 126.244 59.4687 125.939 59.1032C125.67 59.473 125.219 59.6193 124.772 59.6193C124.007 59.6193 123.257 59.3322 123.257 58.4651C123.257 57.9973 123.615 57.6269 124.032 57.4662C123.831 57.3689 123.649 57.0861 123.649 56.8673C123.649 56.2389 124.321 55.9755 124.86 55.9755C125.371 55.9755 126.013 56.2437 126.013 56.8329C126.013 57.1447 125.822 57.4469 125.518 57.5393V57.549C125.753 57.6221 125.939 57.807 126.057 58.0215C126.293 57.6463 126.587 57.3539 126.984 57.1544C127.034 57.1302 127.053 57.0958 127.053 57.0426H127.122V58.0361H127.121ZM124.688 57.8269C124.198 57.8269 123.933 58.1387 123.933 58.4457C123.933 58.7527 124.198 59.0838 124.688 59.0838C125.1 59.0838 125.561 58.9182 125.561 58.6408C125.561 58.2065 125.149 57.8269 124.688 57.8269ZM124.84 56.4722C124.482 56.4722 124.286 56.6475 124.286 56.8867C124.286 57.1254 124.483 57.3103 124.84 57.3103C125.198 57.3103 125.394 57.1248 125.394 56.8867C125.394 56.6475 125.199 56.4722 124.84 56.4722Z" fill="#919195"/>
<path d="M130.836 56.311V56.3793C130.768 56.3793 130.748 56.4132 130.748 56.496V58.2792C130.748 58.713 131.052 58.8538 131.67 58.8538C132.288 58.8538 132.593 58.713 132.593 58.2792V56.496C132.593 56.4132 132.573 56.3793 132.495 56.3793V56.311H133.294V56.3793C133.211 56.3793 133.191 56.4132 133.191 56.496V58.2593C133.191 59.0877 132.592 59.3312 131.67 59.3312C130.748 59.3312 130.15 59.0877 130.15 58.2593V56.496C130.15 56.4132 130.136 56.3793 130.037 56.3793V56.311H130.836Z" fill="#919195"/>
<path d="M137.962 56.311V56.3793C137.878 56.3793 137.864 56.4083 137.864 56.496V59.0974C137.864 59.185 137.878 59.214 137.962 59.214V59.2823H137.251V59.214C137.324 59.214 137.344 59.185 137.344 59.0974V57.2362H137.334L136.25 59.2823H136.152L135.014 57.2362L135.039 57.2266V57.2362H135.029V59.0974C135.029 59.185 135.044 59.214 135.157 59.214V59.2823H134.406V59.214C134.494 59.214 134.509 59.185 134.509 59.0974V56.496C134.509 56.4083 134.494 56.3793 134.406 56.3793V56.311H135.255V56.3793C135.221 56.3793 135.196 56.3987 135.196 56.447C135.196 56.5008 135.25 56.5739 135.284 56.6374L136.196 58.2399L137.055 56.6374C137.104 56.5497 137.143 56.4669 137.143 56.4325C137.143 56.3987 137.099 56.3841 137.055 56.3793V56.311H137.962Z" fill="#919195"/>
<path d="M141.562 58.1916H140.836C140.758 58.1916 140.709 58.24 140.709 58.2793H140.64V57.6411H140.709C140.709 57.6798 140.758 57.7142 140.836 57.7142H142.185V57.7825C142.146 57.797 142.131 57.8164 142.131 57.8943V58.7077C142.131 58.7615 142.145 58.7808 142.185 58.8007V58.8685C141.797 59.1609 141.234 59.3313 140.63 59.3313C139.62 59.3313 138.854 58.8443 138.854 57.797C138.854 56.8079 139.659 56.2622 140.669 56.2622C141.052 56.2622 141.346 56.3256 141.552 56.3939C141.748 56.4574 141.885 56.5256 141.92 56.5256C141.939 56.5256 141.959 56.516 141.979 56.5014L142.052 56.5305L141.699 57.1831L141.64 57.1492C141.645 57.1396 141.65 57.125 141.65 57.0906C141.65 57.032 141.268 56.7401 140.64 56.7401C139.997 56.7401 139.424 57.1202 139.424 57.7976C139.424 58.504 139.973 58.8545 140.709 58.8545C141.061 58.8545 141.454 58.7475 141.562 58.6695V58.1916Z" fill="#919195"/>
<path d="M145.996 59.3415C145.996 59.298 145.951 59.2829 145.854 59.2829H143.161V59.2146C143.235 59.2146 143.249 59.1856 143.249 59.098V56.4966C143.249 56.409 143.235 56.3799 143.161 56.3799V56.3116H145.819C145.922 56.3116 145.961 56.2869 145.961 56.2531H146.03V56.8767H145.961C145.961 56.8283 145.922 56.789 145.819 56.789H143.848V57.5395H145.128C145.226 57.5395 145.265 57.5148 145.265 57.4712H145.333V58.0852H145.265C145.265 58.0561 145.225 58.0174 145.128 58.0174H143.848V58.8066H145.854C145.952 58.8066 145.996 58.7819 145.996 58.7383H146.065V59.3426H145.996V59.3415Z" fill="#919195"/>
<path d="M148.998 56.311C149.704 56.311 150.004 56.7008 150.004 57.1099C150.004 57.3873 149.818 57.6168 149.627 57.7088C149.872 57.8405 150.097 57.977 150.097 58.4544C150.097 59.0146 149.646 59.2828 149.087 59.2828H146.998V59.2146C147.091 59.2146 147.106 59.1855 147.106 59.0979V56.4965C147.106 56.4089 147.091 56.3798 146.998 56.3798V56.3116L148.998 56.311ZM147.704 57.49H148.988C149.234 57.49 149.434 57.412 149.434 57.1395C149.434 56.8664 149.233 56.789 148.988 56.789H147.704V57.49ZM147.704 58.8055H148.939C149.288 58.8055 149.528 58.6888 149.528 58.3867C149.528 58.0846 149.287 57.9679 148.939 57.9679H147.704V58.8055Z" fill="#919195"/>
<path d="M151.925 56.311V56.3793C151.856 56.3793 151.837 56.4132 151.837 56.496V58.2792C151.837 58.713 152.141 58.8538 152.759 58.8538C153.377 58.8538 153.681 58.713 153.681 58.2792V56.496C153.681 56.4132 153.661 56.3793 153.583 56.3793V56.311H154.383V56.3793C154.299 56.3793 154.279 56.4132 154.279 56.496V58.2593C154.279 59.0877 153.681 59.3312 152.759 59.3312C151.837 59.3312 151.239 59.0877 151.239 58.2593V56.496C151.239 56.4132 151.224 56.3793 151.126 56.3793V56.311H151.925Z" fill="#919195"/>
<path d="M156.117 59.0974C156.117 59.185 156.137 59.214 156.186 59.214V59.2823H155.519V59.214C155.578 59.214 155.597 59.185 155.597 59.0974V56.496C155.597 56.4083 155.578 56.3793 155.519 56.3793V56.311H156.353V56.3793C156.323 56.3793 156.304 56.389 156.304 56.4234C156.304 56.4621 156.343 56.482 156.382 56.5255L158.148 58.3915V56.4965C158.148 56.4089 158.128 56.3798 158.07 56.3798V56.3116H158.751V56.3798C158.687 56.3798 158.668 56.4089 158.668 56.4965V59.0979C158.668 59.1855 158.687 59.2146 158.751 59.2146V59.2828H158.011V59.2146C158.05 59.2146 158.075 59.1952 158.075 59.1662C158.075 59.1415 158.03 59.0979 157.981 59.0447L156.118 57.0615V59.0974H156.117Z" fill="#919195"/>
<path d="M162.375 58.1916H161.65C161.572 58.1916 161.522 58.24 161.522 58.2793H161.454V57.6411H161.522C161.522 57.6798 161.572 57.7142 161.65 57.7142H162.999V57.7825C162.959 57.797 162.945 57.8164 162.945 57.8943V58.7077C162.945 58.7615 162.96 58.7808 162.999 58.8007V58.8685C162.611 59.1609 162.047 59.3313 161.444 59.3313C160.434 59.3313 159.669 58.8443 159.669 57.797C159.669 56.8079 160.473 56.2622 161.484 56.2622C161.866 56.2622 162.161 56.3256 162.367 56.3939C162.563 56.4574 162.7 56.5256 162.735 56.5256C162.754 56.5256 162.774 56.516 162.794 56.5014L162.867 56.5305L162.514 57.1831L162.455 57.1492C162.46 57.1396 162.465 57.125 162.465 57.0906C162.465 57.032 162.083 56.7401 161.455 56.7401C160.812 56.7401 160.239 57.1202 160.239 57.7976C160.239 58.504 160.788 58.8545 161.524 58.8545C161.876 58.8545 162.269 58.7475 162.377 58.6695V58.1916H162.375Z" fill="#919195"/>
</svg>
