<svg width="200" height="81" viewBox="0 0 200 81" fill="none" xmlns="http://www.w3.org/2000/svg">
<rect width="200" height="81" fill="white"/>
<path d="M93.8754 63.2285C84.4623 53.4469 75.1012 43.7165 65.7305 33.9783C65.8912 33.8617 66.0387 33.9119 66.1741 33.911C67.4456 33.9064 68.718 33.9128 69.9895 33.9045C70.217 33.9027 70.3806 33.9645 70.5395 34.1323C78.5775 42.5403 86.621 50.9447 94.6627 59.3481C94.7719 59.4629 94.8866 59.5602 94.8327 59.7534C94.5148 60.8853 94.2066 62.0223 93.8754 63.2285Z" fill="#248CCC"/>
<path d="M85.3225 55.7462C83.7363 56.1538 82.2621 56.3331 80.7612 56.3488C71.9793 56.4396 64.1168 50.3319 62.1506 41.4646C61.625 39.0952 61.6015 36.7059 61.9705 34.3093C62.0198 33.9916 62.1313 33.8814 62.469 33.8925C63.3595 33.9215 64.2513 33.9114 65.1437 33.8971C65.4357 33.8925 65.5164 33.9381 65.4565 34.2669C64.5872 38.973 65.5095 43.29 68.5168 47.032C71.2514 50.4356 74.836 52.4781 79.1903 53.0817C80.207 53.2228 81.2311 53.1771 82.2433 53.0033C82.4031 52.9761 82.5095 52.9968 82.6261 53.1116C83.4945 53.9665 84.3684 54.8148 85.3225 55.7462Z" fill="#7C7A7A"/>
<path d="M101.07 17.9944C101.017 18.1775 100.886 18.2549 100.787 18.3541C93.4296 25.7187 86.0679 33.081 78.7159 40.4521C78.4658 40.7025 78.3368 40.7251 78.0922 40.4494C77.543 39.8338 76.9672 39.2405 76.3789 38.6609C76.1379 38.4234 76.1052 38.2897 76.3706 38.0237C81.7311 32.667 87.0796 27.2974 92.4304 21.9306C93.9949 20.3611 95.5635 18.7958 97.1197 17.218C97.3169 17.0179 97.48 16.9506 97.7628 17.0368C98.8583 17.372 99.9644 17.6767 101.07 17.9944Z" fill="#2BB04B"/>
<path d="M99.5018 37.4529C99.4027 43.4523 97.0035 48.3405 92.3958 52.1623C91.8909 52.5819 91.3615 52.965 90.8106 53.321C90.6378 53.434 90.5249 53.4275 90.3775 53.2698C89.7164 52.5598 89.0498 51.8534 88.3685 51.1637C88.1082 50.9004 88.3431 50.8534 88.5002 50.7584C91.8144 48.7504 94.1745 45.9494 95.3096 42.2305C96.8575 37.1578 96.1397 32.4125 92.9758 28.0996C92.8021 27.8622 92.8283 27.7483 93.0251 27.5597C93.6571 26.9488 94.279 26.3273 94.8821 25.6892C95.1087 25.4499 95.2294 25.4416 95.4423 25.709C97.2675 28.0093 98.4662 30.6014 99.0876 33.4651C99.3732 34.7768 99.5115 36.1047 99.5018 37.4529Z" fill="#7C7A7A"/>
<path d="M51.0072 29.5962C61.7074 29.5962 72.41 29.5962 83.1186 29.5962C83.1411 29.7308 83.0223 29.7746 82.9559 29.841C81.989 30.8051 81.016 31.76 80.0546 32.7273C79.8938 32.8891 79.7307 32.9523 79.5036 32.9523C70.7727 32.9468 62.0405 32.9468 53.3088 32.9486C53.1061 32.9486 52.9522 32.9366 52.826 32.7199C52.2584 31.7471 51.6646 30.7894 51.0814 29.8253C51.0417 29.7613 50.9786 29.7036 51.0072 29.5962Z" fill="#EB2227"/>
<path d="M63.8887 28.6161C64.4714 27.4699 65.1302 26.4634 65.8866 25.5251C68.5356 22.2409 71.8985 20.0435 76.0014 19.0734C81.1836 17.847 86.0885 18.5814 90.6478 21.3926C91.208 21.7384 91.2053 21.7421 90.7367 22.2119C90.1439 22.8062 89.5454 23.3945 88.9631 23.9985C88.7941 24.1742 88.6683 24.1733 88.4647 24.0548C85.7669 22.4835 82.8605 21.749 79.7389 21.9293C75.4711 22.1764 71.9349 23.9556 69.0603 27.0941C68.6793 27.51 68.32 27.9453 67.9998 28.4105C67.916 28.5341 67.8289 28.6198 67.6552 28.6189C66.4233 28.6134 65.1919 28.6161 63.8887 28.6161Z" fill="#7C7A7A"/>
<path d="M124.848 43.3384C125.278 41.9903 125.712 40.673 126.147 39.3562C127.096 36.4833 128.042 33.6099 128.974 30.7314C129.055 30.4829 129.166 30.4128 129.414 30.4165C130.317 30.4304 131.222 30.4221 132.127 30.4221C132.57 30.4221 132.572 30.4221 132.43 30.8361C130.929 35.2227 129.425 39.6093 127.924 43.9954C127.432 45.4326 126.937 46.8684 126.459 48.311C126.371 48.5785 126.25 48.6799 125.96 48.6716C125.214 48.6499 124.465 48.6444 123.719 48.6734C123.393 48.6864 123.269 48.5651 123.171 48.2719C121.684 43.7972 120.186 39.3267 118.688 34.8557C118.227 33.4766 117.765 32.0994 117.305 30.7204C117.275 30.6346 117.26 30.5447 117.229 30.4216C118.39 30.4216 119.529 30.4253 120.668 30.4188C120.927 30.4179 120.908 30.6263 120.953 30.7692C121.527 32.5517 122.104 34.3338 122.66 36.1222C123.372 38.4234 124.189 40.6928 124.772 43.0337C124.8 43.1356 124.822 43.2374 124.848 43.3384Z" fill="#7C7A7A"/>
<path d="M133.728 30.4232C134.878 30.4232 136.004 30.4287 137.13 30.4186C137.38 30.4158 137.391 30.5868 137.439 30.7436C138.11 32.8392 138.786 34.9324 139.444 37.0326C140.099 39.1309 140.84 41.2034 141.369 43.4516C141.731 42.138 142.119 40.9383 142.514 39.7423C143.492 36.7693 144.468 33.7954 145.434 30.8183C145.529 30.5269 145.643 30.4024 145.976 30.4126C146.88 30.4416 147.783 30.4361 148.688 30.4153C149.009 30.4089 149.051 30.4753 148.949 30.7777C147.6 34.689 146.262 38.6057 144.922 42.5207C144.263 44.4415 143.599 46.3581 142.958 48.2845C142.856 48.592 142.715 48.6833 142.403 48.6732C141.669 48.6478 140.936 48.6515 140.201 48.6723C139.904 48.6796 139.77 48.5865 139.675 48.2965C138.062 43.4377 136.435 38.5832 134.81 33.7272C134.464 32.6967 134.121 31.6653 133.777 30.6353C133.757 30.5762 133.747 30.5135 133.728 30.4232Z" fill="#7C7A7A"/>
<path d="M111.609 33.2147C109.073 33.2876 106.578 33.2327 104.039 33.253C104.289 32.3272 104.526 31.4451 104.768 30.5631C104.83 30.3363 105.027 30.4257 105.167 30.4257C107.946 30.4211 110.725 30.422 113.504 30.422C114.082 30.422 114.658 30.4294 115.235 30.4183C115.453 30.4146 115.57 30.4474 115.563 30.7125C115.544 31.3806 115.552 32.0505 115.559 32.7195C115.56 32.8878 115.493 33.0225 115.412 33.1585C113.102 37.0596 110.791 40.9611 108.478 44.8622C108.299 45.1633 108.092 45.4492 107.874 45.7816C110.521 45.7816 113.131 45.7816 115.782 45.7816C115.505 46.6765 115.239 47.5373 114.978 48.3995C114.914 48.6089 114.756 48.5863 114.6 48.5863C113.497 48.5863 112.397 48.5863 111.297 48.5863C108.936 48.5863 106.577 48.5771 104.217 48.5955C103.831 48.5983 103.777 48.471 103.738 48.1114C103.595 46.7844 104.01 45.6737 104.714 44.5469C106.805 41.2018 108.795 37.7945 110.83 34.414C111.068 34.0137 111.336 33.6306 111.609 33.2147Z" fill="#7C7A7A"/>
</svg>
